<svg xmlns="http://www.w3.org/2000/svg" width="48" height="48" viewBox="0 0 48 48" fill="none">
  <defs>
    <linearGradient id="g" x1="0" y1="0" x2="48" y2="48" gradientUnits="userSpaceOnUse">
      <stop stop-color="#818cf8"/>
      <stop offset="0.5" stop-color="#a78bfa"/>
      <stop offset="1" stop-color="#22d3ee"/>
    </linearGradient>
  </defs>
  <rect width="48" height="48" rx="12" fill="#020617"/>
  <path d="M10 24l14 6 14-6v11a2 2 0 01-1.2 1.83L24 42l-12.8-5.17A2 2 0 0110 35V24z" fill="url(#g)" fill-opacity="0.9"/>
  <path d="M10 24l14 6 14-6-5.2-3.5L24 24.4l-8.8-3.9L10 24z" fill="url(#g)" fill-opacity="0.55"/>
  <path d="M24 6l2.2 6 6 2.2-6 2.2-2.2 6-2.2-6-6-2.2 6-2.2L24 6z" fill="url(#g)"/>
  <circle cx="33.5" cy="8.5" r="1.8" fill="#22d3ee"/>
  <circle cx="14.5" cy="10" r="1.3" fill="#a78bfa"/>
</svg>
